<?xml version="1.0" encoding="UTF-8"?>
<svg version="1.1" viewBox="0 0 1024 1024" xmlns="http://www.w3.org/2000/svg"><path d="m276.67 262c-13.296 0-24 5.352-24 12v52h166.67v-52c0-6.648-10.704-12-24-12h-118.67zm-24 96v244h166.67v-244h-166.67zm0 276v32h166.67v-32h-166.67zm0 64v52c0 6.648 10.704 12 24 12h118.67c13.296 0 24-5.352 24-12v-52h-166.67z" fill="#fff" stop-color="#000000" style="paint-order:fill markers stroke"/><path d="m491.33 262c-13.296 0-24 5.352-24 12v30h128v-30c0-6.648-10.704-12-24-12h-80zm-24 74v350h128v-350h-128zm0 382v32c0 6.648 10.704 12 24 12h80c13.296 0 24-5.352 24-12v-32h-128z" fill="#fff" stop-color="#000000" style="paint-order:fill markers stroke"/><path d="m705.38 255.21c-1.0335-0.0337-2.1036-0.02239-3.2031 0.03711-2.9321 0.15867-6.0744 0.65531-9.2852 1.5156l-77.273 20.705c-12.843 3.4412-21.797 11.381-20.076 17.803l13.459 50.229 123.64-33.129-13.459-50.229c-1.1292-4.2141-6.5663-6.6957-13.801-6.9316zm35.541 88.068-123.64 33.129 79.717 297.51 123.64-33.129-79.717-297.51zm87.998 328.42-123.64 33.129 13.459 50.229c1.7206 6.4215 13.446 8.8202 26.289 5.3789l77.273-20.705c12.843-3.4413 21.797-11.381 20.076-17.803l-13.459-50.229z" fill="#fff" stop-color="#000000" style="paint-order:fill markers stroke"/></svg>
