<?xml version="1.0" encoding="UTF-8"?>
<svg version="1.1" viewBox="0 0 1024 1024" xmlns="http://www.w3.org/2000/svg"><path d="m757.69 390.76c-19.09 19.09-38.151 38.151-57.244 57.244h11.551c53.737 0 96 42.263 96 96s-42.263 96-96 96h-203.55c-21.336 21.336-42.675 42.675-64 64h267.55c88.086 0 160-71.914 160-160 0-72.211-48.359-133.48-114.31-153.24z" color="#000000" fill="#fff" stroke-linecap="round" stroke-linejoin="round" style="paint-order:fill markers stroke"/><path d="m520 192c-83.461 0-154.64 53.407-180.97 128.13-103.52 2.6562-187.03 87.725-187.03 191.87 0 105.81 86.186 192 192 192h9.9414c21.315-21.314 42.671-42.671 64-64h-73.941c-71.465 0-128-56.535-128-128s56.535-128 128-128h19.184a32.003 32.003 0 0 0 31.369-25.68c11.796-58.553 62.824-102.32 125.45-102.32 71.465 0 128 56.535 128 128 0 7.749-0.72211 15.369-2.0644 22.887a32.003 32.003 0 0 0 0.17383 4.9453c20.901-20.901 41.765-41.765 62.662-62.662-16.453-89.255-94.853-157.17-188.77-157.17z" color="#000000" fill="#fff" stroke-linecap="round" stroke-linejoin="round" style="paint-order:fill markers stroke"/><path d="m257.44 766.56 509.12-509.12" fill="none" stroke="#fff" stroke-width="48"/></svg>
