<?xml version="1.0" encoding="UTF-8"?>
<svg version="1.1" viewBox="0 0 1024 1024" xmlns="http://www.w3.org/2000/svg"><path d="m480 216c-70.358 0-128 57.642-128 128v120c-53.184 0-96 42.816-96 96v152c0 53.184 42.816 96 96 96h320c53.184 0 96-42.816 96-96v-152c0-53.184-42.816-96-96-96v-120c0-70.358-57.642-128-128-128h-64zm0 64h64c36.009 0 64 27.991 64 64v120h-192v-120c0-36.009 27.991-64 64-64zm32 260c26.592 0 48 21.408 48 48v96c0 26.592-21.408 48-48 48s-48-21.408-48-48v-96c0-26.592 21.408-48 48-48z" color="#000000" fill="#fff" stroke-linecap="round" stroke-width="3" style="paint-order:fill markers stroke"/></svg>
