<?xml version="1.0" encoding="UTF-8"?>
<svg version="1.1" viewBox="0 0 1024 1024" xmlns="http://www.w3.org/2000/svg"><path d="m488 128c-40.869 0-74 33.131-74 74 0.0439 25.808 14.389 48.408 35.59 63.125 7.6656 5.3215 1.3705 30.875-16.875 30.875h-136.71c-26.592 0-48 21.408-48 48v136.71c0 18.246 25.554 24.541 30.875 16.875 14.718-21.2 37.317-35.546 63.125-35.59 40.869 0 74 33.131 74 74s-33.131 74-74 74c-25.808-0.0439-48.408-14.389-63.125-35.59-5.3215-7.6657-30.875-1.3705-30.875 16.875v136.71c0 26.592 21.408 48 48 48h136.71c18.246 0 24.541-25.554 16.875-30.875-21.2-14.718-35.546-37.317-35.59-63.125 0-40.869 33.131-74 74-74s74 33.131 74 74c-0.0439 25.808-14.389 48.408-35.59 63.125-7.6657 5.3215-1.3705 30.875 16.875 30.875h136.71c26.592 0 48-21.408 48-48v-136.71c0-18.246 25.554-24.541 30.875-16.875 14.718 21.2 37.317 35.546 63.125 35.59 40.869 0 74-33.131 74-74s-33.131-74-74-74c-25.808 0.044-48.408 14.389-63.125 35.59-5.3215 7.6657-30.875 1.3706-30.875-16.875v-136.71c0-26.592-21.408-48-48-48h-136.71c-18.246 0-24.541-25.553-16.875-30.875 21.2-14.717 35.546-37.317 35.59-63.125 0-40.869-33.131-74-74-74z" fill="#fff" stop-color="#000000" stroke-width="0" style="paint-order:fill markers stroke"/></svg>
