<?xml version="1.0" encoding="UTF-8"?>
<svg version="1.1" viewBox="0 0 1024 1024" xmlns="http://www.w3.org/2000/svg"><path d="m484.75 212v600l-208.66-174.56h-131.76v-247.18h131.76z" fill="#ffab00"/><ellipse cx="512" cy="512" rx="482" ry="482" fill="none" stop-color="#000000" stroke="#ffab00" stroke-linecap="square" stroke-width="60" style="paint-order:fill markers stroke"/><path d="m658.5 204.56a355 355 0 0 1 177.5 307.44 355 355 0 0 1-177.5 307.44" fill="none" stop-color="#000000" stroke="#ffab00" stroke-linecap="square" stroke-linejoin="round" stroke-width="40" style="paint-order:fill markers stroke"/><path d="m609.25 289a257.5 257.5 0 0 1 128.75 223 257.5 257.5 0 0 1-128.75 223" fill="none" stop-color="#000000" stroke="#ffab00" stroke-linecap="square" stroke-linejoin="round" stroke-width="40" style="paint-order:fill markers stroke"/><path d="m560 373.44a160 160 0 0 1 80 138.56 160 160 0 0 1-80 138.56" fill="none" stop-color="#000000" stroke="#ffab00" stroke-linecap="square" stroke-linejoin="round" stroke-width="40" style="paint-order:fill markers stroke"/></svg>
