<?xml version="1.0" encoding="UTF-8"?>
<svg version="1.1" viewBox="0 0 1024 1024" xmlns="http://www.w3.org/2000/svg"><circle cx="512" cy="512" r="482" fill="none" stop-color="#000000" stroke="#ffab00" stroke-linecap="square" stroke-width="60" style="paint-order:fill markers stroke"/><path transform="matrix(0 .81682 -.81682 0 886.7 246.55)" d="m443.73 819.92-61.549-184.03-180.89-58.413 184.03-61.549 58.413-180.89 61.549 184.03 180.89 58.413-184.03 61.549z" fill="none" stop-color="#000000" stroke="#ffab00" stroke-linecap="round" stroke-width="48.97" style="paint-order:fill markers stroke"/><path transform="scale(-1,1)" d="m-806.79 630.22-19.85-72.384-71.372-18.839 72.384-19.85 18.839-71.372 19.85 72.384 71.372 18.839-72.384 19.85z" fill="none" stop-color="#000000" stroke="#ffab00" stroke-linecap="round" stroke-width="20" style="paint-order:fill markers stroke"/><path d="m505 308.43-19.85-72.384-71.372-18.839 72.384-19.85 18.839-71.372 19.85 72.384 71.372 18.839-72.384 19.85z" fill="none" stop-color="#000000" stroke="#ffab00" stroke-linecap="round" stroke-width="20" style="paint-order:fill markers stroke"/><path transform="matrix(-.42262 -.90631 -.90631 .42262 672.58 836.46)" d="m579.75 312.39-19.85-72.384-71.372-18.839 72.384-19.85 18.839-71.372 19.85 72.384 71.372 18.839-72.384 19.85z" fill="#ffab00" stop-color="#000000" style="paint-order:fill markers stroke"/><path transform="matrix(0 -.63825 -.63825 0 775.05 1171)" d="m579.75 312.39-33.084-59.824-58.139-31.398 59.824-33.084 31.398-58.139 33.084 59.824 58.139 31.398-59.824 33.084z" fill="#ffab00" stop-color="#000000" style="paint-order:fill markers stroke"/><path transform="matrix(-.76035 -.98969 -.98969 .76035 1315.6 783.72)" d="m579.75 312.39-19.85-72.384-71.372-18.839 72.384-19.85 18.839-71.372 19.85 72.384 71.372 18.839-72.384 19.85z" fill="#ffab00" stop-color="#000000" style="paint-order:fill markers stroke"/></svg>
