<?xml version="1.0" encoding="UTF-8"?>
<svg version="1.1" viewBox="0 0 1024 1024" xmlns="http://www.w3.org/2000/svg"><circle cx="412" cy="297" r="90" fill="#fff" stop-color="#000000" style="paint-order:fill markers stroke"/><path d="m525.12 257a120 120 0 0 1 6.875 40 120 120 0 0 1-6.9492 40h226.95a40 40 0 0 0 40-40 40 40 0 0 0-40-40z" color="#000000" fill="#fff" stroke-linecap="round"/><path d="m272 257a40 40 0 0 0-40 40 40 40 0 0 0 40 40h26.949a120 120 0 0 1-6.9492-40 120 120 0 0 1 6.9492-40z" color="#000000" fill="#fff" stroke-linecap="round"/><circle cx="612" cy="512" r="90" fill="#fff" stop-color="#000000" style="paint-order:fill markers stroke"/><path d="m498.87 472a120 120 0 0 0-6.875 40 120 120 0 0 0 6.9492 40h-226.95a40 40 0 0 1-40-40 40 40 0 0 1 40-40z" color="#000000" fill="#fff" stroke-linecap="round"/><path d="m752 472a40 40 0 0 1 40 40 40 40 0 0 1-40 40h-26.949a120 120 0 0 0 6.9492-40 120 120 0 0 0-6.9492-40z" color="#000000" fill="#fff" stroke-linecap="round"/><path d="m525.13 687a120 120 0 0 1 6.875 40 120 120 0 0 1-6.9492 40h226.95a40 40 0 0 0 40-40 40 40 0 0 0-40-40z" color="#000000" fill="#fff" stroke-linecap="round"/><path d="m272 687a40 40 0 0 0-40 40 40 40 0 0 0 40 40h26.949a120 120 0 0 1-6.9492-40 120 120 0 0 1 6.9492-40z" color="#000000" fill="#fff" stroke-linecap="round"/><circle cx="412" cy="727" r="90" fill="#fff" stop-color="#000000" style="paint-order:fill markers stroke"/><ellipse cx="512" cy="512" rx="482" ry="482" fill="none" stop-color="#000000" stroke="#fff" stroke-linecap="square" stroke-width="60" style="paint-order:fill markers stroke"/></svg>
