<?xml version="1.0" encoding="UTF-8" standalone="no"?>
<svg xmlns="http://www.w3.org/2000/svg" xmlns:cc="http://creativecommons.org/ns#" xmlns:dc="http://purl.org/dc/elements/1.1/" xmlns:rdf="http://www.w3.org/1999/02/22-rdf-syntax-ns#" id="svg8" version="1.1" viewBox="0 0 1024 1024" height="1024" width="1024">
  <metadata id="metadata">
    <rdf:RDF>
      <cc:Work rdf:about="">
        <dc:format>image/svg+xml</dc:format>
        <dc:type rdf:resource="http://purl.org/dc/dcmitype/StillImage" />
        <cc:license rdf:resource="http://creativecommons.org/licenses/by-sa/4.0/" />
        <dc:creator>
          <cc:Agent>
            <dc:title>Iceflower S - iceflower@gmx.de</dc:title>
          </cc:Agent>
        </dc:creator>
      </cc:Work>
    </rdf:RDF>
  </metadata>
  <path id="rect956-0-4-5-9-0" style="fill:#ffab00;fill-opacity:1;stroke:none;stroke-width:0;stroke-linecap:square;stroke-miterlimit:4;stroke-dasharray:none;stroke-opacity:1;paint-order:fill markers stroke;stop-color:#000000" d="M 276.66602 262 C 263.37002 262 252.66602 267.352 252.66602 274 L 252.66602 326 L 419.33398 326 L 419.33398 274 C 419.33398 267.352 408.62998 262 395.33398 262 L 276.66602 262 z M 252.66602 358 L 252.66602 602 L 419.33398 602 L 419.33398 358 L 252.66602 358 z M 252.66602 634 L 252.66602 666 L 419.33398 666 L 419.33398 634 L 252.66602 634 z M 252.66602 698 L 252.66602 750 C 252.66602 756.648 263.37002 762 276.66602 762 L 395.33398 762 C 408.62998 762 419.33398 756.648 419.33398 750 L 419.33398 698 L 252.66602 698 z " />
  <circle style="fill:none;stroke:#ffab00;stroke-width:60;stroke-linecap:square;stroke-miterlimit:4;stroke-dasharray:none;stroke-opacity:1;paint-order:fill markers stroke;stop-color:#000000" id="circle" cx="512" cy="512" r="482" />
  <path id="rect956-0-4-5-8" style="fill:#ffab00;fill-opacity:1;stroke:none;stroke-width:0;stroke-linecap:square;stroke-miterlimit:4;stroke-dasharray:none;stroke-opacity:1;paint-order:fill markers stroke;stop-color:#000000" d="M 491.33398 262 C 478.03798 262 467.33398 267.352 467.33398 274 L 467.33398 304 L 595.33398 304 L 595.33398 274 C 595.33398 267.352 584.62998 262 571.33398 262 L 491.33398 262 z M 467.33398 336 L 467.33398 686 L 595.33398 686 L 595.33398 336 L 467.33398 336 z M 467.33398 718 L 467.33398 750 C 467.33398 756.648 478.03798 762 491.33398 762 L 571.33398 762 C 584.62998 762 595.33398 756.648 595.33398 750 L 595.33398 718 L 467.33398 718 z " />
  <path id="rect956-0-4-5-8-7" style="fill:#ffab00;fill-opacity:1;stroke:none;stroke-width:0;stroke-linecap:square;stroke-miterlimit:4;stroke-dasharray:none;stroke-opacity:1;paint-order:fill markers stroke;stop-color:#000000" d="M 705.38281 255.20898 C 704.34932 255.17528 703.27922 255.18659 702.17969 255.24609 C 699.24759 255.40476 696.10527 255.9014 692.89453 256.76172 L 615.62109 277.4668 C 602.77814 280.90805 593.82429 288.84806 595.54492 295.26953 L 609.00391 345.49805 L 732.64258 312.36914 L 719.18359 262.14062 C 718.05443 257.92654 712.61726 255.44489 705.38281 255.20898 z M 740.92383 343.27734 L 617.28516 376.40625 L 697.00195 673.91211 L 820.64062 640.7832 L 740.92383 343.27734 z M 828.92188 671.69336 L 705.2832 704.82227 L 718.74219 755.05078 C 720.46282 761.47226 732.1883 763.87095 745.03125 760.42969 L 822.30469 739.72461 C 835.14764 736.28335 844.10149 728.34334 842.38086 721.92188 L 828.92188 671.69336 z " />
</svg>
