<?xml version="1.0" encoding="UTF-8" standalone="no"?>
<svg xmlns:inkscape="http://www.inkscape.org/namespaces/inkscape" xmlns:sodipodi="http://sodipodi.sourceforge.net/DTD/sodipodi-0.dtd" xmlns="http://www.w3.org/2000/svg" xmlns:svg="http://www.w3.org/2000/svg" xmlns:rdf="http://www.w3.org/1999/02/22-rdf-syntax-ns#" xmlns:cc="http://creativecommons.org/ns#" xmlns:dc="http://purl.org/dc/elements/1.1/" width="1024" height="1024" viewBox="0 0 1024 1024" version="1.1" id="svg8">
  <path id="rect928" style="fill:none;stroke:#ffab00;stroke-width:63.9999;stroke-linecap:round;stroke-linejoin:round;stroke-opacity:1;paint-order:fill markers stroke;stop-color:#000000" d="M 520 224 C 442.3263 224 377.93071 278.79833 363.18359 352 L 344 352 C 255.36 352 184 423.36 184 512 C 184 600.64 255.36 672 344 672 L 552 672 L 712 672 C 782.912 672 840 614.912 840 544 C 840 473.088 782.912 416 712 416 L 680.17578 416 C 679.2892 414.81603 678.3559 413.66978 677.4375 412.51172 C 679.08973 403.25874 680 393.74226 680 384 C 680 295.36 608.64 224 520 224 z "/>
  <defs id="defs2"/>
  <metadata id="metadata">
    <rdf:RDF>
      <cc:Work rdf:about="">
        <dc:format>image/svg+xml</dc:format>
        <dc:type rdf:resource="http://purl.org/dc/dcmitype/StillImage"/>
        <cc:license rdf:resource="http://creativecommons.org/licenses/by-sa/4.0/"/>
        <dc:creator>
          <cc:Agent>
            <dc:title>Iceflower S - iceflower@gmx.de</dc:title>
          </cc:Agent>
        </dc:creator>
      </cc:Work>
    </rdf:RDF>
  </metadata>
  <circle r="482" cy="512" cx="512" id="circle" style="fill:none;stroke:#ffab00;stroke-width:60;stroke-linecap:square;stroke-miterlimit:4;stroke-dasharray:none;stroke-opacity:1;paint-order:fill markers stroke;stop-color:#000000"/>
</svg>
