<?xml version="1.0" encoding="UTF-8" standalone="no"?>
<svg xmlns:inkscape="http://www.inkscape.org/namespaces/inkscape" xmlns:sodipodi="http://sodipodi.sourceforge.net/DTD/sodipodi-0.dtd" xmlns="http://www.w3.org/2000/svg" xmlns:svg="http://www.w3.org/2000/svg" xmlns:rdf="http://www.w3.org/1999/02/22-rdf-syntax-ns#" xmlns:cc="http://creativecommons.org/ns#" xmlns:dc="http://purl.org/dc/elements/1.1/" width="1024" height="1024" viewBox="0 0 1024 1024" version="1.1" id="svg8">
  <path style="color:#000000;fill:#ffab00;stroke-linecap:round;stroke-linejoin:round;-inkscape-stroke:none;paint-order:fill markers stroke" d="m 711.64844,404.80078 -59.38672,59.38672 a 32.00315,32.00315 0 0 0 0.10351,0.20703 c 1.08892,1.37308 1.82749,2.29395 2.19532,2.78516 A 32.00315,32.00315 0 0 0 680.17578,480 H 712 c 53.73748,0 96,42.26252 96,96 0,53.73748 -42.26252,96 -96,96 H 552 444.44922 l -64,64 H 552 712 c 88.08637,0 160,-71.91363 160,-160 0,-88.08637 -71.91363,-160 -160,-160 0,-3.76124 -0.13676,-7.49057 -0.35156,-11.19922 z" id="path3600"/>
  <path style="color:#000000;fill:#ffab00;stroke-linecap:round;stroke-linejoin:round;-inkscape-stroke:none;paint-order:fill markers stroke" d="M 520,224 C 436.53945,224 365.35678,277.40714 339.0293,352.12695 235.50663,354.78311 152,439.85243 152,544 c 0,89.25472 61.32199,164.54284 144.01953,185.92188 L 353.94141,672 H 344 c -71.46547,0 -128,-56.53453 -128,-128 0,-71.46547 56.53453,-128 128,-128 h 19.18359 a 32.00315,32.00315 0 0 0 31.36914,-25.67969 C 406.3487,331.76755 457.37688,288 520,288 c 59.79391,0 108.99767,39.63688 123.51953,94.42188 l 49.52735,-49.52735 C 661.99373,268.54045 596.06862,224 520,224 Z" id="rect928-7"/>
  <defs id="defs2">
    <inkscape:path-effect effect="spiro" id="path-effect3188" is_visible="true" lpeversion="1"/>
  </defs>
  <metadata id="metadata">
    <rdf:RDF>
      <cc:Work rdf:about="">
        <dc:format>image/svg+xml</dc:format>
        <dc:type rdf:resource="http://purl.org/dc/dcmitype/StillImage"/>
        <cc:license rdf:resource="http://creativecommons.org/licenses/by-sa/4.0/"/>
        <dc:creator>
          <cc:Agent>
            <dc:title>Iceflower S - iceflower@gmx.de</dc:title>
          </cc:Agent>
        </dc:creator>
      </cc:Work>
    </rdf:RDF>
  </metadata>
  <circle r="482" cy="512" cx="512" id="circle" style="fill:none;stroke:#ffab00;stroke-width:60;stroke-linecap:square;stroke-miterlimit:4;stroke-dasharray:none;stroke-opacity:1;paint-order:fill markers stroke;stop-color:#000000"/>
  <path style="fill:none;stroke:#ffab00;stroke-width:48;stroke-linecap:butt;stroke-linejoin:miter;stroke-miterlimit:4;stroke-dasharray:none;stroke-opacity:1" d="M 217.44157,774.55842 726.55845,265.44154" id="path1555-5" inkscape:path-effect="#path-effect3188" inkscape:original-d="M 217.44157,774.55842 726.55845,265.44154" sodipodi:nodetypes="cc"/>
</svg>
