<?xml version="1.0" encoding="UTF-8" standalone="no"?>
<svg xmlns:inkscape="http://www.inkscape.org/namespaces/inkscape" xmlns:sodipodi="http://sodipodi.sourceforge.net/DTD/sodipodi-0.dtd" xmlns="http://www.w3.org/2000/svg" xmlns:svg="http://www.w3.org/2000/svg" xmlns:rdf="http://www.w3.org/1999/02/22-rdf-syntax-ns#" xmlns:cc="http://creativecommons.org/ns#" xmlns:dc="http://purl.org/dc/elements/1.1/" width="1024" height="1024" viewBox="0 0 1024 1024" version="1.1" id="svg8">
  <defs id="defs2"/>
  <metadata id="metadata">
    <rdf:RDF>
      <cc:Work rdf:about="">
        <dc:format>image/svg+xml</dc:format>
        <dc:type rdf:resource="http://purl.org/dc/dcmitype/StillImage"/>
        <cc:license rdf:resource="http://creativecommons.org/licenses/by-sa/4.0/"/>
        <dc:creator>
          <cc:Agent>
            <dc:title>Iceflower S - iceflower@gmx.de</dc:title>
          </cc:Agent>
        </dc:creator>
      </cc:Work>
    </rdf:RDF>
  </metadata>
  <path id="use4661-2" style="fill:#f22a2a;fill-opacity:1;stroke:none;stroke-width:96;stroke-linecap:round;stroke-opacity:1;paint-order:fill markers stroke;stop-color:#000000" d="M 668 251.54883 C 602.42616 251.61853 542.38619 288.33523 512.20898 346.55273 C 481.96194 288.20285 421.72355 251.55758 356 251.55078 C 258.79791 251.54068 179.88644 330.34866 180 427.55078 C 180.0545 474.16428 198.5881 519.03927 231.54883 552 L 512 832.45117 L 792.45117 552 C 825.41257 519.0386 843.94554 474.16329 844 427.54883 C 844.11356 330.34671 765.20204 251.4455 668 251.54883 z M 668.06836 315.54883 C 730.60002 315.48233 780.07305 364.95099 780 427.47461 C 779.9653 457.17366 768.10099 485.83846 747.19531 506.74414 L 512 741.94141 L 276.80273 506.74414 C 255.89754 485.83894 244.03472 457.17376 244 427.47656 C 243.927 364.95287 293.38832 315.54428 355.99414 315.55078 C 397.93218 315.55478 436.08101 338.75925 455.38867 376.00586 L 512.21094 485.61914 L 569.0293 376.00586 C 588.3048 338.81979 626.3433 315.59318 668.06836 315.54883 z "/>
  <circle r="482" cy="512" cx="512" id="circle" style="fill:none;stroke:#f22a2a;stroke-width:60;stroke-linecap:square;stroke-miterlimit:4;stroke-dasharray:none;stroke-opacity:1;paint-order:fill markers stroke;stop-color:#000000"/>
</svg>
