<?xml version="1.0" encoding="UTF-8" standalone="no"?>
<svg xmlns="http://www.w3.org/2000/svg" xmlns:cc="http://creativecommons.org/ns#" xmlns:dc="http://purl.org/dc/elements/1.1/" xmlns:rdf="http://www.w3.org/1999/02/22-rdf-syntax-ns#" id="svg8" version="1.1" viewBox="0 0 1024 1024" height="1024" width="1024">
  <defs id="defs9" />
  <metadata id="metadata">
    <rdf:RDF>
      <cc:Work rdf:about="">
        <dc:format>image/svg+xml</dc:format>
        <dc:type rdf:resource="http://purl.org/dc/dcmitype/StillImage" />
        <cc:license rdf:resource="http://creativecommons.org/licenses/by-sa/4.0/" />
        <dc:creator>
          <cc:Agent>
            <dc:title>Iceflower S - iceflower@gmx.de</dc:title>
          </cc:Agent>
        </dc:creator>
      </cc:Work>
      <cc:License rdf:about="http://creativecommons.org/licenses/by-sa/4.0/">
        <cc:permits rdf:resource="http://creativecommons.org/ns#Reproduction" />
        <cc:permits rdf:resource="http://creativecommons.org/ns#Distribution" />
        <cc:requires rdf:resource="http://creativecommons.org/ns#Notice" />
        <cc:requires rdf:resource="http://creativecommons.org/ns#Attribution" />
        <cc:permits rdf:resource="http://creativecommons.org/ns#DerivativeWorks" />
        <cc:requires rdf:resource="http://creativecommons.org/ns#ShareAlike" />
      </cc:License>
    </rdf:RDF>
  </metadata>
  <path id="rect1073-1" style="color:#000000;fill:#ff7100;-inkscape-stroke:none;paint-order:fill markers stroke" d="m 750.55844,257.44156 c -62.28649,-62.28649 -163.98768,-62.28649 -226.27417,0 L 416.80404,364.92179 c -62.28649,62.28649 -62.28649,163.98768 0,226.27417 7.74474,7.74474 16.10113,14.52298 24.91308,20.34175 l 42.96917,-42.96917 3.81865,-3.81865 c -9.49554,-4.62806 -18.46718,-10.82988 -26.44607,-18.80876 -37.99812,-37.99813 -37.99811,-97.76639 0,-135.76451 L 569.53911,302.69639 c 37.99811,-37.99811 97.76637,-37.99812 135.7645,0 37.99812,37.99813 37.99811,97.76639 0,135.7645 l -32.6153,32.61531 c 8.74963,25.10654 12.95747,51.5205 12.61467,77.89499 l 65.25546,-65.25546 c 62.28649,-62.28649 62.28649,-163.98768 0,-226.27417 z" />
  <path id="rect1073-1-4" style="color:#000000;fill:#ff7100;-inkscape-stroke:none;paint-order:fill markers stroke" d="m 575.19596,432.80404 c -7.74474,-7.74474 -16.10113,-14.52298 -24.91308,-20.34175 l -42.96917,42.96917 -3.81865,3.81865 c 9.49554,4.62806 18.46718,10.82988 26.44607,18.80876 37.99812,37.99813 37.99812,97.76638 0,135.76451 L 422.46089,721.30361 c -37.99812,37.99812 -97.76637,37.99812 -135.7645,0 -37.99812,-37.99813 -37.99812,-97.76638 0,-135.7645 l 32.6153,-32.61531 c -8.74963,-25.10654 -12.95747,-51.5205 -12.61467,-77.89499 l -65.25546,65.25546 c -62.28649,62.28649 -62.28649,163.98768 0,226.27417 62.28649,62.28649 163.98768,62.28649 226.27417,0 L 575.19596,659.07821 c 62.28649,-62.28649 62.28649,-163.98768 0,-226.27417 z" />
  <circle style="fill:none;stroke:#ff7100;stroke-width:60;stroke-linecap:square;stroke-miterlimit:4;stroke-dasharray:none;stroke-opacity:1;paint-order:fill markers stroke;stop-color:#000000" id="circle" cx="512" cy="512" r="482" />
</svg>
