<?xml version="1.0" encoding="UTF-8" standalone="no"?>
<svg xmlns:inkscape="http://www.inkscape.org/namespaces/inkscape" xmlns:sodipodi="http://sodipodi.sourceforge.net/DTD/sodipodi-0.dtd" xmlns="http://www.w3.org/2000/svg" xmlns:svg="http://www.w3.org/2000/svg" xmlns:rdf="http://www.w3.org/1999/02/22-rdf-syntax-ns#" xmlns:cc="http://creativecommons.org/ns#" xmlns:dc="http://purl.org/dc/elements/1.1/" id="svg8" version="1.1" viewBox="0 0 1024 1024" height="1024" width="1024">
  <defs id="defs8"/>
  <metadata id="metadata">
    <rdf:RDF>
      <cc:Work rdf:about="">
        <dc:format>image/svg+xml</dc:format>
        <dc:type rdf:resource="http://purl.org/dc/dcmitype/StillImage"/>
        <cc:license rdf:resource="http://creativecommons.org/licenses/by-sa/4.0/"/>
        <dc:creator>
          <cc:Agent>
            <dc:title>Iceflower S - iceflower@gmx.de</dc:title>
          </cc:Agent>
        </dc:creator>
      </cc:Work>
    </rdf:RDF>
  </metadata>
  <ellipse style="fill:none;stroke:#ff7100;stroke-width:60;stroke-linecap:square;stroke-miterlimit:4;stroke-dasharray:none;stroke-opacity:1;paint-order:fill markers stroke;stop-color:#000000" id="circle" cx="512" cy="512" rx="482" ry="482"/>
  <path id="rect1430" style="color:#000000;fill:#ff7100;stroke-linecap:round;paint-order:fill markers stroke" d="m 480,152 c -70.35842,0 -128,57.64158 -128,128 v 184 c -53.184,0 -96,42.816 -96,96 v 152 c 0,53.184 42.816,96 96,96 h 320 c 53.184,0 96,-42.816 96,-96 V 560 c 0,-53.184 -42.816,-96 -96,-96 H 416 V 280 c 0,-36.00948 27.99053,-64 64,-64 h 64 c 36.00947,0 64,27.99052 64,64 v 24 h 64 V 280 C 672,209.64158 614.35842,152 544,152 Z m 32,388 c 26.592,0 48,21.408 48,48 v 96 c 0,26.592 -21.408,48 -48,48 -26.592,0 -48,-21.408 -48,-48 v -96 c 0,-26.592 21.408,-48 48,-48 z"/>
</svg>
