<?xml version="1.0" encoding="UTF-8" standalone="no"?>
<svg xmlns="http://www.w3.org/2000/svg" xmlns:cc="http://creativecommons.org/ns#" xmlns:dc="http://purl.org/dc/elements/1.1/" xmlns:rdf="http://www.w3.org/1999/02/22-rdf-syntax-ns#" width="1024" height="1024" viewBox="0 0 1024 1024" version="1.1" id="svg8">
  <defs id="defs7" />
  <metadata id="metadata">
    <rdf:RDF>
      <cc:Work rdf:about="">
        <dc:format>image/svg+xml</dc:format>
        <dc:type rdf:resource="http://purl.org/dc/dcmitype/StillImage" />
        <cc:license rdf:resource="http://creativecommons.org/licenses/by-sa/4.0/" />
        <dc:creator>
          <cc:Agent>
            <dc:title>Iceflower S - iceflower@gmx.de</dc:title>
          </cc:Agent>
        </dc:creator>
      </cc:Work>
    </rdf:RDF>
  </metadata>
  <path id="path846" style="color:#000000;fill:#d73737;stroke-linecap:round;-inkscape-stroke:none;paint-order:fill markers stroke" d="M 400 218.80469 C 282.13653 264.1143 198 378.57859 198 512 C 198 684.84864 339.15132 826 512 826 C 684.84868 826 826 684.84864 826 512 C 826 378.57859 741.86347 264.1143 624 218.80469 L 624 324.6875 C 687.62797 362.6333 730 432.08048 730 512 C 730 632.96642 632.96651 730 512 730 C 391.03349 730 294 632.96642 294 512 C 294 432.08048 336.37203 362.6333 400 324.6875 L 400 218.80469 z " />
  <circle r="482" cy="512" cx="512" id="circle" style="fill:none;stroke:#d73737;stroke-width:60;stroke-linecap:square;stroke-miterlimit:4;stroke-dasharray:none;stroke-opacity:1;paint-order:fill markers stroke;stop-color:#000000" />
  <path style="fill:none;stroke:#d73737;stroke-width:96;stroke-linecap:round;stroke-linejoin:miter;stroke-miterlimit:4;stroke-dasharray:none;stroke-opacity:1" d="m 512,375.68563 v -208" id="path958-6" />
</svg>
