<?xml version="1.0" encoding="UTF-8" standalone="no"?>
<svg xmlns="http://www.w3.org/2000/svg" xmlns:cc="http://creativecommons.org/ns#" xmlns:dc="http://purl.org/dc/elements/1.1/" xmlns:rdf="http://www.w3.org/1999/02/22-rdf-syntax-ns#" id="svg8" version="1.1" viewBox="0 0 1024 1024" height="1024" width="1024">
  <defs id="defs7" />
  <metadata id="metadata">
    <rdf:RDF>
      <cc:Work rdf:about="">
        <dc:format>image/svg+xml</dc:format>
        <dc:type rdf:resource="http://purl.org/dc/dcmitype/StillImage" />
        <cc:license rdf:resource="http://creativecommons.org/licenses/by-sa/4.0/" />
        <dc:creator>
          <cc:Agent>
            <dc:title>Iceflower S - iceflower@gmx.de</dc:title>
          </cc:Agent>
        </dc:creator>
      </cc:Work>
    </rdf:RDF>
  </metadata>
  <circle style="fill:none;stroke:#ffab00;stroke-width:60;stroke-linecap:square;stroke-miterlimit:4;stroke-dasharray:none;stroke-opacity:1;paint-order:fill markers stroke;stop-color:#000000" id="circle" cx="512" cy="512" r="482" />
  <path id="rect956" style="fill:#ffab00;stroke-width:0;stroke-linecap:square;paint-order:fill markers stroke;stop-color:#000000" d="M 488 128 C 447.13093 128 414 161.13093 414 202 C 414.0439 227.80817 428.38937 250.40754 449.58984 265.125 C 457.25548 270.44652 450.96036 296 432.71484 296 L 296 296 C 269.408 296 248 317.408 248 344 L 248 480.71484 C 248 498.96044 273.5535 505.25554 278.875 497.58984 C 293.5925 476.38944 316.1918 462.044 342 462 C 382.8691 462 416 495.1309 416 536 C 416 576.8691 382.8691 610 342 610 C 316.1918 609.9561 293.5925 595.61056 278.875 574.41016 C 273.5535 566.74446 248 573.03966 248 591.28516 L 248 728 C 248 754.592 269.408 776 296 776 L 432.71484 776 C 450.96044 776 457.25554 750.4465 449.58984 745.125 C 428.38944 730.4075 414.044 707.8082 414 682 C 414 641.1309 447.1309 608 488 608 C 528.8691 608 562 641.1309 562 682 C 561.9561 707.8082 547.61056 730.4075 526.41016 745.125 C 518.74446 750.4465 525.03966 776 543.28516 776 L 680 776 C 706.592 776 728 754.592 728 728 L 728 591.28516 C 728 573.03966 753.5535 566.74446 758.875 574.41016 C 773.5925 595.61056 796.1918 609.9561 822 610 C 862.8691 610 896 576.8691 896 536 C 896 495.1309 862.8691 462 822 462 C 796.1918 462.044 773.5925 476.38944 758.875 497.58984 C 753.5535 505.25554 728 498.96044 728 480.71484 L 728 344 C 728 317.408 706.592 296 680 296 L 543.28516 296 C 525.03965 296 518.74452 270.44652 526.41016 265.125 C 547.61064 250.40755 561.95611 227.80817 562 202 C 562 161.13093 528.86907 128 488 128 z " />
</svg>
