<?xml version="1.0" encoding="UTF-8" standalone="no"?>
<svg xmlns="http://www.w3.org/2000/svg" xmlns:svg="http://www.w3.org/2000/svg" xmlns:rdf="http://www.w3.org/1999/02/22-rdf-syntax-ns#" xmlns:cc="http://creativecommons.org/ns#" xmlns:dc="http://purl.org/dc/elements/1.1/" id="svg8" version="1.1" viewBox="0 0 1024 1024" height="1024" width="1024">
  <defs id="defs7"/>
  <metadata id="metadata">
    <rdf:RDF>
      <cc:Work rdf:about="">
        <dc:format>image/svg+xml</dc:format>
        <dc:type rdf:resource="http://purl.org/dc/dcmitype/StillImage"/>
        <cc:license rdf:resource="http://creativecommons.org/licenses/by-sa/4.0/"/>
        <dc:creator>
          <cc:Agent>
            <dc:title>Iceflower S - iceflower@gmx.de</dc:title>
          </cc:Agent>
        </dc:creator>
      </cc:Work>
    </rdf:RDF>
  </metadata>
  <circle style="fill:#615cff;fill-opacity:1;stroke:none;stroke-width:30;stroke-linecap:round;stroke-linejoin:round;stroke-miterlimit:4;stroke-dasharray:none;stroke-opacity:1;paint-order:fill markers stroke;stop-color:#000000" id="path1135-3-5-76-8-8-1-6" cx="411.99985" cy="297.00061" r="90"/>
  <path style="color:#000000;fill:#615cff;stroke-linecap:round" d="m 525.125,257 a 120,120 0 0 1 6.875,40 120,120 0 0 1 -6.9492,40 H 752 a 40,40 0 0 0 40,-40 40,40 0 0 0 -40,-40 z" id="path930"/>
  <path style="color:#000000;fill:#615cff;stroke-linecap:round" d="m 271.99998,257 a 40,40 0 0 0 -40,40 40,40 0 0 0 40,40 H 298.9492 A 120,120 0 0 1 292,297 a 120,120 0 0 1 6.9492,-40 z" id="path958-2-7-5-5-7-5-9-2"/>
  <circle style="fill:#615cff;fill-opacity:1;stroke:none;stroke-width:30;stroke-linecap:round;stroke-linejoin:round;stroke-miterlimit:4;stroke-dasharray:none;stroke-opacity:1;paint-order:fill markers stroke;stop-color:#000000" id="path1135-3-5-76-8-8-1-0" cx="612.00012" cy="512.00061" r="90"/>
  <path style="color:#000000;fill:#615cff;stroke-linecap:round" d="m 498.87498,472 a 120,120 0 0 0 -6.875,40 120,120 0 0 0 6.9492,40 h -226.9492 a 40,40 0 0 1 -40,-40 40,40 0 0 1 40,-40 z" id="path952"/>
  <path style="color:#000000;fill:#615cff;stroke-linecap:round" d="m 752,472 a 40,40 0 0 1 40,40 40,40 0 0 1 -40,40 h -26.94922 a 120,120 0 0 0 6.9492,-40 120,120 0 0 0 -6.9492,-40 z" id="path958-2-7-5-5-7-5-9-3"/>
  <path style="color:#000000;fill:#615cff;stroke-linecap:round" d="m 525.12501,687 a 120,120 0 0 1 6.875,40 120,120 0 0 1 -6.9492,40 h 226.9492 a 40,40 0 0 0 40,-40 40,40 0 0 0 -40,-40 z" id="path974"/>
  <path style="color:#000000;fill:#615cff;stroke-linecap:round" d="m 271.99999,687 a 40,40 0 0 0 -40,40 40,40 0 0 0 40,40 h 26.94922 a 120,120 0 0 1 -6.9492,-40 120,120 0 0 1 6.9492,-40 z" id="path958-2-7-5-5-7-5-9-6"/>
  <circle style="fill:#615cff;fill-opacity:1;stroke:none;stroke-width:30;stroke-linecap:round;stroke-linejoin:round;stroke-miterlimit:4;stroke-dasharray:none;stroke-opacity:1;paint-order:fill markers stroke;stop-color:#000000" id="path1135-3-5-76-8-8-1-65" cx="411.99985" cy="727.00055" r="90"/>
  <ellipse style="fill:none;stroke:#615cff;stroke-width:60;stroke-linecap:square;stroke-miterlimit:4;stroke-dasharray:none;stroke-opacity:1;paint-order:fill markers stroke;stop-color:#000000" id="circle" cx="512" cy="512" rx="482" ry="482"/>
</svg>
