<?xml version="1.0" encoding="UTF-8"?>
<svg version="1.1" viewBox="0 0 1024 1024" xmlns="http://www.w3.org/2000/svg"><path d="m711.65 404.8-59.387 59.387a32.003 32.003 0 0 0 0.10351 0.20703c1.0889 1.3731 1.8275 2.294 2.1953 2.7852a32.003 32.003 0 0 0 25.615 12.82h31.824c53.737 0 96 42.263 96 96s-42.263 96-96 96h-267.55l-64 64h331.55c88.086 0 160-71.914 160-160s-71.914-160-160-160c0-3.7612-0.13676-7.4906-0.35156-11.199z" color="#000000" fill="#ffab00" stroke-linecap="round" stroke-linejoin="round" style="-inkscape-stroke:none;paint-order:fill markers stroke"/><path d="m520 224c-83.461 0-154.64 53.407-180.97 128.13-103.52 2.6562-187.03 87.725-187.03 191.87 0 89.255 61.322 164.54 144.02 185.92l57.922-57.922h-9.9414c-71.465 0-128-56.535-128-128s56.535-128 128-128h19.184a32.003 32.003 0 0 0 31.369-25.68c11.796-58.553 62.824-102.32 125.45-102.32 59.794 0 109 39.637 123.52 94.422l49.527-49.527c-31.053-64.354-96.978-108.89-173.05-108.89z" color="#000000" fill="#ffab00" stroke-linecap="round" stroke-linejoin="round" style="-inkscape-stroke:none;paint-order:fill markers stroke"/><path d="m217.44 774.56 509.12-509.12" fill="none" stroke="#ffab00" stroke-width="48"/></svg>
