<?xml version="1.0" encoding="UTF-8"?>
<svg version="1.1" viewBox="0 0 1024 1024" xmlns="http://www.w3.org/2000/svg"><path d="m668 251.55c-65.574 0.0697-125.61 36.786-155.79 95.004-30.247-58.35-90.485-94.995-156.21-95.002-97.202-0.0101-176.11 78.798-176 176 0.0545 46.614 18.588 91.488 51.549 124.45l280.45 280.45 280.45-280.45c32.961-32.961 51.494-77.837 51.549-124.45 0.11356-97.202-78.798-176.1-176-176zm0.06836 64c62.532-0.0665 112 49.402 111.93 111.93-0.0347 29.699-11.899 58.364-32.805 79.27l-235.2 235.2-235.2-235.2c-20.905-20.905-32.768-49.57-32.803-79.268-0.073-62.524 49.388-111.93 111.99-111.93 41.938 4e-3 80.087 23.208 99.395 60.455l56.822 109.61 56.818-109.61c19.276-37.186 57.314-60.413 99.039-60.457z" fill="#f22a2a" stop-color="#000000" style="paint-order:fill markers stroke"/></svg>
