<?xml version="1.0" encoding="UTF-8"?>
<svg version="1.1" viewBox="0 0 1024 1024" xmlns="http://www.w3.org/2000/svg"><path d="m750.56 257.44c-62.286-62.286-163.99-62.286-226.27 0l-107.48 107.48c-62.286 62.286-62.286 163.99 0 226.27 7.7447 7.7447 16.101 14.523 24.913 20.342l46.788-46.788c-9.4955-4.6281-18.467-10.83-26.446-18.809-37.998-37.998-37.998-97.766 0-135.76l107.48-107.48c37.998-37.998 97.766-37.998 135.76 0 37.998 37.998 37.998 97.766 0 135.76l-32.615 32.615c8.7496 25.107 12.957 51.52 12.615 77.895l65.255-65.255c62.286-62.286 62.286-163.99 0-226.27z" color="#000000" fill="#ff7100" style="-inkscape-stroke:none;paint-order:fill markers stroke"/><path d="m575.2 432.8c-7.7447-7.7447-16.101-14.523-24.913-20.342l-46.788 46.788c9.4955 4.6281 18.467 10.83 26.446 18.809 37.998 37.998 37.998 97.766 0 135.76l-107.48 107.48c-37.998 37.998-97.766 37.998-135.76 0-37.998-37.998-37.998-97.766 0-135.76l32.615-32.615c-8.7496-25.107-12.957-51.52-12.615-77.895l-65.255 65.255c-62.286 62.286-62.286 163.99 0 226.27s163.99 62.286 226.27 0l107.48-107.48c62.286-62.286 62.286-163.99 0-226.27z" color="#000000" fill="#ff7100" style="-inkscape-stroke:none;paint-order:fill markers stroke"/></svg>
