<?xml version="1.0" encoding="UTF-8"?>
<svg version="1.1" viewBox="0 0 1024 1024" xmlns="http://www.w3.org/2000/svg"><circle cx="512" cy="218.36" r="81.25" fill="#ff7100" stop-color="#000000" style="paint-order:fill markers stroke"/><circle cx="663.69" cy="481.46" r="81.25" fill="#ff7100" stop-color="#000000" style="paint-order:fill markers stroke"/><circle cx="307.01" cy="349.91" r="81.25" fill="#ff7100" stop-color="#000000" style="paint-order:fill markers stroke"/><path d="m512 342.71c-29.386 0-58.771 6.9049-83.928 20.713-3.7037 33.538-21.018 62.971-46.303 82.654 16.165 5.9963 31.662 14.008 46.033 24.055 21.011 14.688 37.827 33.187 49.295 53.922h72.445c-4.9516-13.261-7.666-27.614-7.666-42.602 0-47.968 27.731-89.454 68.031-109.32-0.12795-0.0901-0.25241-0.18169-0.38086-0.27148-27.802-19.436-62.664-29.152-97.527-29.152z" color="#000000" color-rendering="auto" dominant-baseline="auto" fill="#ff7100" image-rendering="auto" shape-rendering="auto" solid-color="#000000" stop-color="#000000" style="font-feature-settings:normal;font-variant-alternates:normal;font-variant-caps:normal;font-variant-east-asian:normal;font-variant-ligatures:normal;font-variant-numeric:normal;font-variant-position:normal;font-variation-settings:normal;inline-size:0;isolation:auto;mix-blend-mode:normal;paint-order:stroke markers fill;shape-margin:0;shape-padding:0;text-decoration-color:#000000;text-decoration-line:none;text-decoration-style:solid;text-indent:0;text-orientation:mixed;text-transform:none;white-space:normal"/><circle cx="512" cy="512" r="482" fill="none" stop-color="#000000" stroke="#ff7100" stroke-linecap="square" stroke-width="60" style="paint-order:fill markers stroke"/><path d="m427.18 655.61c42.693-47.897 32.959-113.32-22.645-152.19-55.604-38.872-139.45-38.872-195.06 0-55.604 38.872-65.338 104.29-22.645 152.19z" color="#000000" color-rendering="auto" dominant-baseline="auto" fill="#ff7100" image-rendering="auto" shape-rendering="auto" solid-color="#000000" stop-color="#000000" style="font-feature-settings:normal;font-variant-alternates:normal;font-variant-caps:normal;font-variant-east-asian:normal;font-variant-ligatures:normal;font-variant-numeric:normal;font-variant-position:normal;font-variation-settings:normal;inline-size:0;isolation:auto;mix-blend-mode:normal;paint-order:stroke markers fill;shape-margin:0;shape-padding:0;text-decoration-color:#000000;text-decoration-line:none;text-decoration-style:solid;text-indent:0;text-orientation:mixed;text-transform:none;white-space:normal"/><path d="m783.86 787.15c42.693-47.897 32.959-113.32-22.645-152.19-55.604-38.872-139.45-38.872-195.06 0-55.604 38.872-65.338 104.29-22.644 152.19z" color="#000000" color-rendering="auto" dominant-baseline="auto" fill="#ff7100" image-rendering="auto" shape-rendering="auto" solid-color="#000000" stop-color="#000000" style="font-feature-settings:normal;font-variant-alternates:normal;font-variant-caps:normal;font-variant-east-asian:normal;font-variant-ligatures:normal;font-variant-numeric:normal;font-variant-position:normal;font-variation-settings:normal;inline-size:0;isolation:auto;mix-blend-mode:normal;paint-order:stroke markers fill;shape-margin:0;shape-padding:0;text-decoration-color:#000000;text-decoration-line:none;text-decoration-style:solid;text-indent:0;text-orientation:mixed;text-transform:none;white-space:normal"/></svg>
