<?xml version="1.0" encoding="UTF-8"?>
<svg version="1.1" viewBox="0 0 1024 1024" xmlns="http://www.w3.org/2000/svg"><circle cx="512" cy="512" r="482" fill="none" stop-color="#000000" stroke="#ff7100" stroke-linecap="square" stroke-width="60" style="paint-order:fill markers stroke"/><path d="m347.57 690.86c-80.971 0-146.16-64.502-146.16-144.62v-108.47c0-80.122 65.186-144.62 146.16-144.62h328.85c80.971 0 146.16 64.502 146.16 144.62v108.47c0 80.122-65.186 144.62-146.16 144.62h-161.03" fill="none" stop-color="#000000" stroke="#ff7100" stroke-linecap="round" stroke-miterlimit="4.5" stroke-width="40" style="paint-order:stroke markers fill"/><path d="m515.4 690.86-190.88 83.309 23.054-83.309" fill="none" stop-color="#000000" stroke="#ff7100" stroke-linecap="round" stroke-miterlimit="4.5" stroke-width="40" style="paint-order:fill markers stroke"/><g transform="translate(-2e-5 7.5421)"><g transform="translate(-32.664)"><path d="m427.16 564.46h315" fill="none" stroke="#ff7100" stroke-linecap="round" stroke-linejoin="round" stroke-width="30"/><path d="m347.16 579.46c8.2843 0 15-6.7157 15-15 0-8.2843-6.7157-15-15-15-8.2843 0-15 6.7157-15 15 0 8.2843 6.7157 15 15 15z" fill="#ff7100" style="paint-order:stroke markers fill"/></g><g transform="matrix(-1 0 0 1 1056.7 -80)"><path d="m427.16 564.46h315" fill="none" stroke="#ff7100" stroke-linecap="round" stroke-linejoin="round" stroke-width="30"/><path d="m347.16 579.46c8.2843 0 15-6.7157 15-15 0-8.2843-6.7157-15-15-15-8.2843 0-15 6.7157-15 15 0 8.2843 6.7157 15 15 15z" fill="#ff7100" style="paint-order:stroke markers fill"/></g><g transform="translate(-32.664 -160)"><path d="m427.16 564.46h315" fill="none" stroke="#ff7100" stroke-linecap="round" stroke-linejoin="round" stroke-width="30"/><path d="m347.16 579.46c8.2843 0 15-6.7157 15-15 0-8.2843-6.7157-15-15-15-8.2843 0-15 6.7157-15 15 0 8.2843 6.7157 15 15 15z" fill="#ff7100" style="paint-order:stroke markers fill"/></g></g><rect x="30" y="30" width="964" height="964" rx="192" ry="192" fill="none" stop-color="#000000" stroke="#ff7100" stroke-width="60" style="paint-order:fill markers stroke"/></svg>
