<?xml version="1.0" encoding="UTF-8"?>
<svg version="1.1" viewBox="0 0 1024 1024" xmlns="http://www.w3.org/2000/svg" xmlns:xlink="http://www.w3.org/1999/xlink"><path d="m476.27 459.5h71.457" fill="none" stroke="#ff7100" stroke-linecap="round" stroke-width="30"/><path id="c" d="m569.82 762.88c0-278.83 114.18-134.42 114.18-315.97v-167.41h-172" fill="none" stroke="#ff7100" stroke-linecap="square" stroke-width="50"/><path id="a" d="m704 352.12 120 0.12815c0 114.61-21.391 187.94-152.74 176.45" fill="none" stroke="#ff7100" stroke-linejoin="round" stroke-width="35"/><path id="b" d="m512 762.88v86.62h192v-46l-134.18-40.62z" fill="#ff7100"/><path d="m432.11 399.5h159.77" fill="none" stroke="#ff7100" stroke-linecap="round" stroke-width="30"/><g transform="translate(0,7.5)"><use transform="matrix(-1,0,0,1,1024,-7.5)" width="100%" height="100%" xlink:href="#c"/><use transform="matrix(-1,0,0,1,1024,-7.5)" width="100%" height="100%" xlink:href="#b"/><use transform="matrix(-1 0 0 1 1044 -8.6816)" width="100%" height="100%" xlink:href="#a"/></g><rect x="30" y="30" width="964" height="964" rx="192" ry="192" fill="none" stop-color="#000000" stroke="#ff7100" stroke-width="60" style="paint-order:fill markers stroke"/></svg>
