<?xml version="1.0" encoding="UTF-8"?>
<svg version="1.1" viewBox="0 0 1024 1024" xmlns="http://www.w3.org/2000/svg"><path d="m169.99 480.49a31.784 32.217 75.002 0 0-11.895 4.0703 31.784 32.217 75.002 0 0-11.779 43.535c47.669 81.286 120.93 142.8 206.46 177.07l49.988-49.988c-83.448-26.392-155.58-82.341-200.7-159.27a31.784 32.217 75.002 0 0-32.078-15.422z" color="#000000" fill="#ff7100" stroke-linecap="round" stroke-width=".99995" style="paint-order:fill markers stroke"/><path d="m854.12 480.45a31.784 32.217 75.002 0 0-32.131 15.742c-63.876 108.92-181.81 176.01-309.77 176.01-11.493 0-22.868-0.72899-34.172-1.7949l-55.896 55.896c29.126 6.2338 59.137 9.5254 89.633 9.5254 150.76-1e-5 290.36-79.298 365.84-208.01a31.784 32.217 75.002 0 0-11.631-43.418 31.784 32.217 75.002 0 0-11.879-3.9512z" color="#000000" fill="#ff7100" stroke-linecap="round" stroke-width=".99995" style="paint-order:fill markers stroke"/><path d="m771.93 376.52-45.488 45.488c38.183 28.113 70.91 63.808 95.541 105.81a32.217 31.784 14.998 0 0 44.01 11.789 32.217 31.784 14.998 0 0 11.635-43.416c-27.543-46.966-63.652-87.314-105.7-119.67z" color="#000000" fill="#ff7100" stroke-linecap="round" stroke-width=".99995" style="paint-order:fill markers stroke"/><path d="m511.78 288.18c-150.76 0-290.08 79.193-365.46 207.73a32.217 31.784 14.998 0 0 11.783 43.535 32.217 31.784 14.998 0 0 43.969-11.352c63.977-109.09 182.19-176.29 310.15-176.29 55.722 1e-5 109.53 12.743 157.82 36.104l47.145-47.145c-61.824-33.891-132.29-52.586-205.4-52.586z" color="#000000" fill="#ff7100" stroke-linecap="round" stroke-width=".99995" style="paint-order:fill markers stroke"/><path d="m512 416c-53.019 0-96 42.981-96 96 0.23042 33.922 18.347 65.204 47.654 82.287l130.98-130.98c-17.235-29.28-48.663-47.27-82.639-47.303z" color="#000000" fill="#ff7100" stroke-linecap="round" stroke-width="64" style="paint-order:fill markers stroke"/><path d="m257.44 766.56 509.12-509.12" fill="none" stroke="#ff7100" stroke-width="48"/><rect x="30" y="30" width="964" height="964" rx="192" ry="192" fill="none" stop-color="#000000" stroke="#ff7100" stroke-width="60" style="paint-order:fill markers stroke"/></svg>
