<?xml version="1.0" encoding="UTF-8"?>
<svg version="1.1" viewBox="0 0 1024 1024" xmlns="http://www.w3.org/2000/svg"><path d="m480 152c-70.358 0-128 57.642-128 128v184c-53.184 0-96 42.816-96 96v152c0 53.184 42.816 96 96 96h320c53.184 0 96-42.816 96-96v-152c0-53.184-42.816-96-96-96h-256v-184c0-36.009 27.991-64 64-64h64c36.009 0 64 27.991 64 64v24h64v-24c0-70.358-57.642-128-128-128zm32 388c26.592 0 48 21.408 48 48v96c0 26.592-21.408 48-48 48s-48-21.408-48-48v-96c0-26.592 21.408-48 48-48z" color="#000000" fill="#ff7100" stroke-linecap="round" style="paint-order:fill markers stroke"/><rect x="30" y="30" width="964" height="964" rx="192" ry="192" fill="none" stop-color="#000000" stroke="#ff7100" stroke-width="60" style="paint-order:fill markers stroke"/></svg>
