<?xml version="1.0" encoding="UTF-8"?>
<svg version="1.1" viewBox="0 0 1024 1024" xmlns="http://www.w3.org/2000/svg"><path d="m239.39 752c-16.569 0-30-13.431-30-30s13.431-30 30-30c16.569 0 30 13.431 30 30s-13.431 30-30 30z" fill="#ffab00" style="paint-order:stroke markers fill"/><path d="m359.39 722h425.23" fill="none" stroke="#ffab00" stroke-linecap="round" stroke-linejoin="round" stroke-width="60"/><path d="m784.61 612c16.569 0 30-13.431 30-30s-13.431-30-30-30c-16.569 0-30 13.431-30 30s13.431 30 30 30z" fill="#ffab00" style="paint-order:stroke markers fill"/><path d="m664.61 582h-425.23" fill="none" stroke="#ffab00" stroke-linecap="round" stroke-linejoin="round" stroke-width="60"/><path d="m239.39 472c-16.569 0-30-13.431-30-30 0-16.569 13.431-30 30-30 16.569 0 30 13.431 30 30 0 16.569-13.431 30-30 30z" fill="#ffab00" style="paint-order:stroke markers fill"/><path d="m359.39 442h425.23" fill="none" stroke="#ffab00" stroke-linecap="round" stroke-linejoin="round" stroke-width="60"/><path d="m784.61 332c16.569 0 30-13.431 30-30 0-16.569-13.431-30-30-30-16.569 0-30 13.431-30 30 0 16.569 13.431 30 30 30z" fill="#ffab00" style="paint-order:stroke markers fill"/><path d="m664.61 302h-425.23" fill="none" stroke="#ffab00" stroke-linecap="round" stroke-linejoin="round" stroke-width="60"/><rect x="30" y="30" width="964" height="964" rx="192" ry="192" fill="none" stop-color="#000000" stroke="#ffab00" stroke-width="60" style="paint-order:fill markers stroke"/></svg>
