<?xml version="1.0" encoding="UTF-8" standalone="no"?>
<svg xmlns="http://www.w3.org/2000/svg" xmlns:cc="http://creativecommons.org/ns#" xmlns:dc="http://purl.org/dc/elements/1.1/" xmlns:rdf="http://www.w3.org/1999/02/22-rdf-syntax-ns#" xmlns:sodipodi="http://sodipodi.sourceforge.net/DTD/sodipodi-0.dtd" width="1024" height="1024" viewBox="0 0 1024 1024" version="1.1" id="svg8">
  <defs id="defs2" />
  <metadata id="metadata">
    <rdf:RDF>
      <cc:Work rdf:about="">
        <dc:format>image/svg+xml</dc:format>
        <dc:type rdf:resource="http://purl.org/dc/dcmitype/StillImage" />
        <cc:license rdf:resource="http://creativecommons.org/licenses/by-sa/4.0/" />
        <dc:creator>
          <cc:Agent>
            <dc:title>Iceflower S - iceflower@gmx.de</dc:title>
          </cc:Agent>
        </dc:creator>
      </cc:Work>
    </rdf:RDF>
  </metadata>
  <path id="use4661-2" style="fill:#f22a2a;fill-opacity:0.55060726;stroke:none;stroke-width:96;stroke-linecap:round;stroke-opacity:1;paint-order:fill markers stroke;stop-color:#000000" d="m 667.99986,251.54853 c -65.57384,0.0697 -125.61381,36.7864 -155.79102,95.0039 -30.24704,-58.34988 -90.48543,-94.99515 -156.20898,-95.00195 -97.20209,-0.0101 -176.11356,78.79788 -176,176 0.0545,46.6135 18.5881,91.48849 51.54883,124.44922 L 511.99986,832.45087 792.45103,551.9997 c 32.9614,-32.9614 51.49437,-77.83671 51.54883,-124.45117 0.11356,-97.20212 -78.79796,-176.10333 -176,-176 z" sodipodi:nodetypes="scssscsss" />
  <path id="use4661-2-6" style="fill:none;fill-opacity:0.550607;stroke:#f22a2a;stroke-width:128;stroke-linecap:round;stroke-linejoin:miter;stroke-miterlimit:4;stroke-dasharray:none;stroke-opacity:0.54902;paint-order:fill markers stroke;stop-color:#000000" d="m 667.99986,251.54853 c -65.57384,0.0697 -125.61381,36.7864 -155.79102,95.0039 -30.24704,-58.34988 -90.48543,-94.99515 -156.20898,-95.00195 -97.20209,-0.0101 -176.11356,78.79788 -176,176 0.0545,46.6135 18.5881,91.48849 51.54883,124.44922 L 511.99986,832.45087 792.45103,551.9997 c 32.9614,-32.9614 51.49437,-77.83671 51.54883,-124.45117 0.11356,-97.20212 -78.79796,-176.10333 -176,-176 z" sodipodi:nodetypes="scssscsss" />
  <circle r="482" cy="512" cx="512" id="circle" style="fill:none;stroke:#f22a2a;stroke-width:60;stroke-linecap:square;stroke-miterlimit:4;stroke-dasharray:none;stroke-opacity:1;paint-order:fill markers stroke;stop-color:#000000" />
</svg>
