<?xml version="1.0" encoding="UTF-8"?>
<svg version="1.1" viewBox="0 0 1024 1024" xmlns="http://www.w3.org/2000/svg"><path d="m469.27 709.5-2.5684 6.1582-50.812 121.84h192.22l-50.812-121.84-2.5684-6.1582z" color="#000000" fill="#fff" stroke-linecap="square" style="paint-order:fill markers stroke"/><path d="m595.68 685.66-11.414 11.525 2.5684 6.1582 50.812 121.84 86.031-86.865-121.91-50.156z" color="#000000" fill="#fff" stroke-linecap="square" style="paint-order:fill markers stroke"/><path d="m428.32 685.66-6.0859 2.5039-121.91 50.156 86.031 86.865 50.812-121.84 2.5684-6.1602z" color="#000000" fill="#fff" stroke-linecap="square" style="paint-order:fill markers stroke"/><path d="m735.85 315.28-121.91 50.156-6.0879 2.5039v288.13l6.0879 2.5039 121.91 50.156v-9.0293z" color="#000000" fill="#fff" stroke-linecap="square" style="paint-order:fill markers stroke"/><path d="m288.15 315.28v393.45l121.91-50.156 6.0879-2.5039v-288.13l-6.0879-2.5039z" color="#000000" fill="#fff" stroke-linecap="square" style="paint-order:fill markers stroke"/><path d="m637.65 198.82-50.812 121.84-2.5684 6.1602 11.414 11.523 6.0859-2.5039 121.91-50.156z" color="#000000" fill="#fff" stroke-linecap="square" style="paint-order:fill markers stroke"/><path d="m386.35 198.82-86.031 86.865 121.91 50.156 6.0859 2.5039 11.414-11.525-2.5684-6.1582z" color="#000000" fill="#fff" stroke-linecap="square" style="paint-order:fill markers stroke"/><path d="m415.89 186.5 50.812 121.84 2.5684 6.1582h85.461l2.5684-6.1582 50.812-121.84z" color="#000000" fill="#fff" stroke-linecap="square" style="paint-order:fill markers stroke"/><rect x="30" y="30" width="964" height="964" rx="192" ry="192" fill="none" stop-color="#000000" stroke="#fff" stroke-width="60" style="paint-order:fill markers stroke"/></svg>
