<?xml version="1.0" encoding="UTF-8"?>
<svg version="1.1" viewBox="0 0 1024 1024" xmlns="http://www.w3.org/2000/svg"><path d="m400 218.8c-117.86 45.31-202 159.77-202 293.2 0 172.85 141.15 314 314 314s314-141.15 314-314c0-133.42-84.137-247.89-202-293.2v105.88c63.628 37.946 106 107.39 106 187.31 0 120.97-97.033 218-218 218s-218-97.034-218-218c0-79.92 42.372-149.37 106-187.31v-105.88z" color="#000000" fill="#fff" stroke-linecap="round" style="-inkscape-stroke:none;paint-order:fill markers stroke"/><circle cx="512" cy="512" r="482" fill="none" stop-color="#000000" stroke="#fff" stroke-linecap="square" stroke-width="60" style="paint-order:fill markers stroke"/><path d="m512 375.69v-208" fill="none" stroke="#fff" stroke-linecap="round" stroke-width="96"/><rect x="30" y="30" width="964" height="964" rx="192" ry="192" fill="none" stop-color="#000000" stroke="#fff" stroke-width="60" style="paint-order:fill markers stroke"/></svg>
